<svg width="640" height="220" viewBox="0 0 640 220" fill="none" xmlns="http://www.w3.org/2000/svg">
  <defs>
    <linearGradient id="bgGrad" x1="0" y1="0" x2="1" y2="1">
      <stop offset="0%" stop-color="#0F2F6E"/>
      <stop offset="100%" stop-color="#1E56C9"/>
    </linearGradient>
    <linearGradient id="roadGrad" x1="0" y1="0" x2="1" y2="0">
      <stop offset="0%" stop-color="#5FA8FF"/>
      <stop offset="100%" stop-color="#A5D2FF"/>
    </linearGradient>
  </defs>

  <rect x="0" y="0" width="640" height="220" rx="28" fill="url(#bgGrad)"/>

  <g transform="translate(28 40)">
    <rect x="0" y="0" width="132" height="132" rx="28" fill="#FFFFFF" fill-opacity="0.10"/>

    <rect x="22" y="37" width="88" height="50" rx="12" fill="#FFFFFF"/>
    <rect x="30" y="45" width="28" height="15" rx="4" fill="#1E56C9"/>
    <rect x="64" y="45" width="38" height="15" rx="4" fill="#1E56C9"/>

    <circle cx="43" cy="92" r="10" fill="#FFFFFF"/>
    <circle cx="90" cy="92" r="10" fill="#FFFFFF"/>
    <circle cx="43" cy="92" r="5" fill="#1E56C9"/>
    <circle cx="90" cy="92" r="5" fill="#1E56C9"/>

    <path d="M28 114C42 102 90 102 104 114" stroke="url(#roadGrad)" stroke-width="7" stroke-linecap="round"/>
    <path d="M63 109H69" stroke="#FFFFFF" stroke-width="4" stroke-linecap="round"/>
  </g>

  <g transform="translate(182 62)">
    <text x="0" y="52" font-family="Poppins, Arial, sans-serif" font-size="54" font-weight="700" fill="#FFFFFF" letter-spacing="0.5">Routier</text>
    <text x="195" y="52" font-family="Poppins, Arial, sans-serif" font-size="54" font-weight="700" fill="#8CC4FF">+237</text>
    <text x="2" y="88" font-family="Poppins, Arial, sans-serif" font-size="18" font-weight="500" fill="#D8E8FF">Road Transport Platform</text>
  </g>
</svg>
